# xmcd
#
# Track frame offsets:
#	180
#	19116
#	36350
#	64693
#	77030
#	102771
#	122610
#	135018
#	156802
#	176333
#	199025
#	216879
#	235160
#
# Disc length: 3384 seconds
#
# Revision: 1
# Processed by: cddbd v1.4b42PL0 Copyright (c) Steve Scherf et al.
# Submitted via: audiograbber 1.80
#
DISCID=9f0d360d
DTITLE=Ember Swift - Permanent Marker
DYEAR=1900
DGENRE=
TTITLE0=Quickly
TTITLE1=Freak
TTITLE2=The Army Song
TTITLE3=Flashbacks
TTITLE4=Voodoo
TTITLE5=Not Another
TTITLE6=Some Things Are -------
TTITLE7=Ink
TTITLE8=Own It
TTITLE9=Make The Mood Light
TTITLE10=Cheap Drunk
TTITLE11=Water Is THe Cure - All 
TTITLE12=No Name Song
EXTD=Ember Swifts eclectic style of sound, takes time to grasp, however her ran
EXTD=ge is bizarre and captivating at the same time.We witnessed this fab act a
EXTD=t Northern Lights Boreal in Greater Sudbury and had to pick up a memento i
EXTD=n B Flat Major.
EXTT0=
EXTT1=
EXTT2=
EXTT3=
EXTT4=
EXTT5=
EXTT6=
EXTT7=
EXTT8=
EXTT9=
EXTT10=
EXTT11=
EXTT12=
PLAYORDER=
